<svg viewBox="0 0 512 512" xmlns="http://www.w3.org/2000/svg"><path d="m.008 70.677h512v388.41h-512z" fill="#fff" style="paint-order:markers stroke fill"/><g transform="translate(1,1)"><path d="m484.52 69.677h-15.89c-69.714-23.528-145.44-23.813-213.61-.04-67.409-23.773-146.54-23.488-213.64.04h-42.372v388.41h512V69.677zm-257.28 344.28H46.67c52.128-22.904 112.74-22.47 180.57.0zm236.1-.882 1.766.883h-183.61c71.503-22.952 132.41-23.835 181.85-.883zm0-326.62 1.766.883h1.766v307.2c-55.614-23.834-123.59-22.069-203.03 6.179V84.687c64.44-20.303 135.94-20.303 199.5 1.766zm-417.54.0c62.676-22.069 136.83-22.952 200.39-1.766v316.03c-3.095-1.054-6.164-2.061-9.22-3.045-70.021-23.909-133.52-25.794-188.58-4.362-1.752.679-3.497 1.382-5.235 2.11v-308.08h1.766zm-29.131.883h8.828v326.62h-8.828zm476.69 353.1H16.669v-8.828h476.69zm-8.828-26.483V87.335h8.828v326.62h-8.828z"/><path d="m331.97 193.26h79.448c5.297.0 8.828-3.531 8.828-8.828s-3.531-8.828-8.828-8.828H331.97c-5.297.0-8.828 3.531-8.828 8.828s3.531 8.828 8.828 8.828z"/><path d="m307.97 149.12h123.59c5.297.0 8.828-3.531 8.828-8.828s-3.531-8.828-8.828-8.828H307.97c-5.297.0-8.828 3.531-8.828 8.828s3.531 8.828 8.828 8.828z"/><path d="m431.55 308.02h-88.276c-5.297.0-8.828 3.531-8.828 8.828s3.531 8.828 8.828 8.828h88.276c5.297.0 8.828-3.531 8.828-8.828s-3.532-8.828-8.828-8.828z"/><path d="m307.97 281.54h79.448c5.297.0 8.828-3.531 8.828-8.828s-3.531-8.828-8.828-8.828H307.97c-5.297.0-8.828 3.531-8.828 8.828s3.531 8.828 8.828 8.828z"/><path d="m307.97 237.4h123.59c5.297.0 8.828-3.531 8.828-8.828s-3.531-8.828-8.828-8.828H307.97c-5.297.0-8.828 3.531-8.828 8.828s3.531 8.828 8.828 8.828z"/><path d="m274.92 172.67v48h48l128-128-48-48zm48 32h-32v-32h16v16h16zm164.8-148.8-20.8 20.8-48-48 20.8-20.8a15.936 15.936.0 0122.56.0l25.44 25.44c6.24 6.24 6.24 16.32.0 22.56z" fill="#00f" fill-rule="evenodd" stroke-width="16"/><text x="46.556252" y="304.03641" font-family="sans-serif" font-size="32" letter-spacing="0" word-spacing="0" style="line-height:1.25"><tspan x="46.556252" y="304.03641"><tspan x="46.556252" y="304.03641" fill="red" font-size="192">習</tspan></tspan></text></g></svg>