<?xml version="1.0" standalone="no"?>
<!DOCTYPE svg PUBLIC "-//W3C//DTD SVG 20010904//EN"
 "http://www.w3.org/TR/2001/REC-SVG-20010904/DTD/svg10.dtd">
<svg version="1.0" xmlns="http://www.w3.org/2000/svg"
 width="960.000000pt" height="960.000000pt" viewBox="0 0 960.000000 960.000000"
 preserveAspectRatio="xMidYMid meet">
<metadata>
Created by potrace 1.11, written by Peter Selinger 2001-2013
</metadata>
<g transform="translate(0.000000,960.000000) scale(0.100000,-0.100000)"
fill="#000000" stroke="none">
<path d="M8375 9504 c-44 -14 -76 -42 -275 -240 l-225 -224 343 -343 344 -344
-164 44 c-167 45 -535 123 -577 123 -17 0 -57 32 -135 110 l-112 110 -81 -81
-80 -81 -149 11 c-810 59 -1596 -32 -2333 -271 -68 -22 -133 -38 -145 -35 -11
3 -86 26 -166 51 -850 270 -1808 342 -2745 205 -302 -44 -626 -119 -942 -218
l-162 -51 -385 0 -386 0 0 -3640 0 -3640 4800 0 4800 0 0 3640 0 3640 -345 0
c-190 0 -345 3 -345 7 0 4 69 77 154 163 144 145 155 160 171 215 22 73 16
156 -16 222 -32 69 -544 580 -613 613 -62 30 -163 36 -231 14z m-5005 -1248
c409 -42 757 -109 1123 -218 l137 -41 0 -2964 c0 -1629 -1 -2963 -3 -2963 -1
0 -77 25 -167 55 -1135 381 -2112 459 -3027 240 -151 -36 -406 -117 -524 -166
-40 -16 -73 -29 -75 -29 -2 0 -4 1297 -4 2883 l0 2882 28 13 c89 44 439 146
675 196 291 63 585 105 887 126 184 13 767 4 950 -14z m3720 6 c0 -4 -255
-262 -567 -574 l-568 -566 -105 -4 c-115 -4 -154 -18 -193 -70 -28 -38 -34
-117 -12 -174 l18 -46 -247 -247 -246 -246 2 -445 3 -445 264 -3 c235 -2 263
-4 244 -17 -52 -36 -69 -145 -33 -214 13 -27 33 -46 63 -60 l44 -21 1209 2
1209 3 33 23 c89 64 88 209 -1 276 -28 21 -29 21 -1068 24 -571 1 -1039 6
-1039 10 0 4 109 117 243 250 l243 242 600 0 601 0 33 23 c49 33 70 66 76 122
8 71 -25 132 -86 163 -44 22 -48 22 -470 22 l-425 0 250 250 251 250 372 0
c301 0 378 3 400 14 112 58 118 226 10 291 -29 18 -56 21 -241 25 l-207 5 360
360 360 360 -127 127 c-70 71 -121 128 -112 128 24 0 251 -66 402 -117 l137
-46 0 -2873 c0 -1581 -2 -2874 -4 -2874 -2 0 -57 20 -122 45 -244 95 -555 175
-829 214 -416 59 -914 56 -1385 -10 -396 -55 -977 -198 -1358 -334 -53 -19
-98 -35 -99 -35 -2 0 -3 1333 -3 2963 l0 2963 43 12 c499 144 950 226 1402
255 108 7 675 7 675 -1z m-6590 -3382 l0 -3060 -85 0 -85 0 0 3060 0 3060 85
0 85 0 0 -3060z m8770 0 l0 -3060 -85 0 -85 0 0 3060 0 3060 85 0 85 0 0
-3060z m-3498 1313 l3 -148 148 -3 147 -3 0 -149 0 -150 -297 2 -298 3 -3 298
-2 297 150 0 149 0 3 -147z m1719 -4053 c425 -33 853 -137 1169 -284 l75 -35
-1710 0 c-1520 0 -1706 2 -1670 15 131 49 539 155 780 203 256 51 459 78 790
104 98 8 443 6 566 -3z m-4751 -10 c411 -25 823 -99 1260 -225 102 -30 203
-61 225 -69 36 -13 -142 -15 -1640 -15 -1415 0 -1676 2 -1655 13 52 29 301
116 439 155 433 123 894 170 1371 141z m6530 -725 l0 -85 -4470 0 -4470 0 0
85 0 85 4470 0 4470 0 0 -85z"/>
<path d="M1170 6600 l0 -110 555 0 555 0 0 -500 0 -500 -26 -10 c-14 -6 -102
-10 -196 -10 -158 0 -170 -1 -163 -17 4 -10 18 -53 32 -95 l26 -78 149 0 c299
0 390 35 417 161 7 32 11 263 11 659 l0 610 -680 0 -680 0 0 -110z"/>
<path d="M2760 6600 l0 -110 560 0 560 0 0 -498 c0 -374 -3 -501 -12 -510 -9
-9 -71 -12 -215 -12 l-204 0 17 -32 c10 -18 28 -64 40 -103 l22 -70 174 3
c266 5 361 33 404 119 18 36 19 72 22 681 l3 642 -686 0 -685 0 0 -110z"/>
<path d="M1419 6413 c-19 -21 -49 -54 -67 -74 l-33 -36 93 -58 c120 -74 226
-154 309 -232 l66 -62 59 71 c82 99 80 95 48 130 -74 77 -393 298 -431 298 -5
0 -25 -17 -44 -37z"/>
<path d="M2921 6374 c-35 -41 -62 -76 -60 -77 2 -2 47 -28 99 -59 130 -77 227
-147 304 -219 l65 -61 29 34 c61 68 112 133 112 140 0 34 -424 320 -472 317
-7 0 -42 -34 -77 -75z"/>
<path d="M3470 5924 c-113 -40 -333 -117 -490 -170 -157 -54 -288 -100 -293
-104 -13 -11 82 -203 98 -197 7 3 87 33 177 65 264 97 750 281 756 286 6 7
-30 196 -37 195 -3 0 -98 -34 -211 -75z"/>
<path d="M1960 5899 c-184 -72 -510 -192 -675 -248 -99 -34 -185 -63 -192 -66
-8 -3 4 -37 37 -107 27 -56 53 -104 57 -105 13 -5 875 345 891 361 5 5 -29
179 -37 188 -3 3 -40 -7 -81 -23z"/>
<path d="M2521 5334 c-18 -48 -50 -124 -72 -170 l-38 -84 -421 0 -420 0 0
-740 0 -740 130 0 130 0 0 70 0 70 875 0 875 0 0 -70 0 -70 135 0 135 0 0 740
0 740 -585 0 c-598 0 -609 1 -576 36 11 12 131 235 131 244 0 4 -51 17 -112
29 -62 12 -122 25 -134 27 -17 5 -24 -6 -53 -82z m1057 -636 l2 -178 -875 0
-875 0 0 173 c0 96 3 177 7 180 3 4 396 6 872 5 l866 -3 3 -177z m2 -568 l0
-180 -875 0 -875 0 0 180 0 180 875 0 875 0 0 -180z"/>
<path d="M5711 4613 c-53 -28 -74 -64 -79 -136 -3 -52 0 -67 20 -96 12 -19 36
-44 51 -55 28 -21 32 -21 830 -21 787 0 803 0 837 20 97 56 103 211 12 280
-26 20 -45 20 -832 23 -751 2 -807 1 -839 -15z"/>
<path d="M6411 3800 c-80 -19 -124 -82 -119 -171 5 -64 32 -110 81 -137 30
-16 97 -17 870 -20 549 -2 858 1 895 8 100 18 157 106 132 202 -16 56 -29 75
-70 101 l-35 22 -860 2 c-473 0 -875 -2 -894 -7z"/>
</g>
</svg>
